<?xml version="1.0" encoding="UTF-8"?>
<svg id="Layer_2" data-name="Layer 2" xmlns="http://www.w3.org/2000/svg" viewBox="0 0 269.05 18.61">
  <defs>
    <style>
      .cls-1 {
        fill: #004f4f;
      }
    </style>
  </defs>
  <g id="Capa_1" data-name="Capa 1">
    <g>
      <path class="cls-1" d="M9.08,3.49c0-1.66-.43-1.97-1.61-2.62v-.2h5.5v.2c-1.19.66-1.59.96-1.59,2.62v9.51c0,3.53-2.47,5.58-5.8,5.58S0,16.64,0,14.14c0-1.51,1.06-2.5,2.37-2.5.53,0,.96.15,1.24.4-.73.48-1.26,1.16-1.26,2.45,0,1.82,1.31,3.1,3.23,3.1,2.5,0,3.51-1.87,3.51-4.72V3.49Z"/>
      <path class="cls-1" d="M18.96.87v-.2h5.5v.2c-1.19.66-1.61.96-1.61,2.62v12.01c0,1.67.43,1.97,1.61,2.62v.2h-5.5v-.2c1.19-.66,1.59-.96,1.59-2.62V3.49c0-1.66-.4-1.97-1.59-2.62Z"/>
      <path class="cls-1" d="M43.23,3.29c.23-.5.28-.63.28-.96,0-.53-.51-.86-1.61-1.46v-.2h4.74v.2c-1.11.78-1.46,1.16-2.17,2.67l-6.86,15.04h-.13l-6.86-15.04c-.68-1.51-1.03-1.89-2.14-2.67v-.2h5.5v.2c-1.03.45-1.36.76-1.36,1.29,0,.33.13.58.33,1.08l5.17,11.6,5.12-11.55Z"/>
      <path class="cls-1" d="M50.85,18.33h-4.74v-.2c1.11-.78,1.54-1.16,2.25-2.67L55.42.37h.13l7.06,15.09c.73,1.51,1.03,1.89,2.14,2.67v.2h-5.5v-.2c1.06-.45,1.39-.76,1.39-1.29,0-.33-.1-.58-.35-1.09l-1.51-3.25h-7.77l-1.46,3.23c-.23.48-.3.76-.3,1.06,0,.53.5.81,1.61,1.34v.2ZM51.48,11.47h6.81l-3.43-7.39-3.38,7.39Z"/>
      <path class="cls-1" d="M84.58.67h4.36v.2c-1.19.66-1.59.96-1.59,2.62v12.01c0,1.67.4,1.97,1.59,2.62v.2h-5.47v-.2c1.19-.66,1.59-.96,1.59-2.62V2.28l-6.99,16.32h-.1l-7.06-16.32v13.19c0,1.66.68,1.99,1.89,2.65v.2h-5v-.2c1.19-.66,1.87-.98,1.87-2.65V3.49c0-1.66-.4-1.97-1.59-2.62v-.2h4.72l5.98,13.8,5.8-13.8Z"/>
      <path class="cls-1" d="M106.89.87v-.2h5.02v.2c-1.19.66-1.84.98-1.84,2.65v8.05c0,4.62-2.93,7.01-6.94,7.01-5,0-7.32-2.75-7.32-7.01V3.49c0-1.66-.43-1.97-1.61-2.62v-.2h5.52v.2c-1.19.66-1.61.96-1.61,2.62v7.77c0,3.99,1.94,5.98,5.17,5.98s5.52-1.77,5.52-5.95V3.52c0-1.67-.71-1.99-1.92-2.65Z"/>
      <path class="cls-1" d="M116.93,18.33v-.2c1.19-.66,1.59-.96,1.59-2.62V3.49c0-1.66-.4-1.97-1.59-2.62v-.2h5.5v.2c-1.19.66-1.61.96-1.61,2.62v6.53l7.69-7.16c.35-.35.5-.63.5-.93,0-.4-.45-.68-1.08-1.06v-.2h5.22v.2c-1.67.78-2.67,1.51-3.86,2.62l-4.84,4.49,6.36,7.52c1.08,1.26,2.07,2.14,3.15,2.62v.2h-5.6v-.2c.43-.25.78-.45.78-.83,0-.35-.18-.58-.61-1.14l-5.73-6.71-1.99,1.79v4.26c0,1.67.43,1.97,1.61,2.62v.2h-5.5Z"/>
      <path class="cls-1" d="M150.76.67c.76,0,1.14-.08,1.51-.15l.83,4.74h-.23c-1.46-2.19-2.3-3.66-4.64-3.66h-2.5v13.88c0,1.66.45,1.99,1.84,2.65v.2h-5.95v-.2c1.39-.66,1.82-.98,1.82-2.65V1.6h-2.47c-2.37,0-3.2,1.46-4.67,3.66h-.23l.83-4.74c.38.08.76.15,1.51.15h12.34Z"/>
      <path class="cls-1" d="M158.26.87v-.2h5.5v.2c-1.19.66-1.61.96-1.61,2.62v12.01c0,1.67.43,1.97,1.61,2.62v.2h-5.5v-.2c1.19-.66,1.59-.96,1.59-2.62V3.49c0-1.66-.4-1.97-1.59-2.62Z"/>
      <path class="cls-1" d="M191.12,3.17c.28-.4.35-.78.35-.98,0-.48-.48-.81-1.29-1.31v-.2h4.44v.2c-1.01.76-1.51,1.31-2.35,2.62l-4.74,7.47v4.54c0,1.67.43,1.97,1.82,2.62v.2h-5.9v-.2c1.39-.66,1.82-.96,1.82-2.62v-4.54l-4.74-7.47c-.83-1.31-1.31-1.87-2.35-2.62v-.2h5.15v.2c-.66.4-.83.71-.83,1.16,0,.38.1.73.38,1.14l4.14,6.56,4.11-6.56Z"/>
      <path class="cls-1" d="M207.4.42c5.05,0,8.75,3.78,8.75,9.08s-3.71,9.08-8.75,9.08-8.75-3.78-8.75-9.08,3.71-9.08,8.75-9.08ZM207.4,1.55c-3.83,0-6.16,3.18-6.16,7.95s2.32,7.95,6.16,7.95,6.16-3.18,6.16-7.95-2.32-7.95-6.16-7.95Z"/>
      <path class="cls-1" d="M235,12.73c0-1.67-.43-1.94-1.61-2.62v-.2h5.53v.2c-1.21.68-1.64.96-1.64,2.62v5.83h-.58l-1.34-2.52c-.98,1.49-3,2.55-5.47,2.55-5.1,0-8.83-3.66-8.83-8.98s3.88-9.18,9.21-9.18c2.04,0,3.63.63,4.67,1.39l1.36-1.39h.18v5.27h-.2c-1.44-2.37-3.1-4.19-5.88-4.19-3.99,0-6.71,3.25-6.71,8.02s2.75,7.72,6.81,7.72c1.84,0,3.41-.63,4.52-2.14v-2.37Z"/>
      <path class="cls-1" d="M246.98,18.33h-4.74v-.2c1.11-.78,1.54-1.16,2.24-2.67l7.06-15.09h.13l7.06,15.09c.73,1.51,1.03,1.89,2.14,2.67v.2h-5.5v-.2c1.06-.45,1.39-.76,1.39-1.29,0-.33-.1-.58-.35-1.09l-1.51-3.25h-7.77l-1.46,3.23c-.23.48-.3.76-.3,1.06,0,.53.5.81,1.61,1.34v.2ZM247.62,11.47h6.81l-3.43-7.39-3.38,7.39Z"/>
      <path class="cls-1" d="M269.05,3.57c0,1.96-1.6,3.57-3.58,3.57s-3.58-1.6-3.58-3.57,1.61-3.57,3.58-3.57,3.58,1.59,3.58,3.57ZM268.75,3.57c0-1.77-1.5-3.29-3.28-3.29s-3.27,1.52-3.27,3.29,1.5,3.28,3.27,3.28,3.28-1.53,3.28-3.28ZM263.87,1.53l1.26-.05c.86-.03,1.55.17,1.55.96s-.48,1.01-1.08,1.07c.41.03.89.39.96,1.07.09.87.35.86.87.86l-.05.16c-1.06.27-1.42-.16-1.54-.63-.1-.43.12-1.27-.67-1.42-.11-.03-.23,0-.23,0v1.73c0,.08,0,.12.03.12l.32.04v.16h-1.42v-.16l.3-.04c.05,0,.05-.03.05-.12V1.85c0-.09,0-.12-.05-.12l-.3-.05v-.15ZM264.94,3.34h.12c.73,0,.9-.43.9-.87,0-.83-.67-.92-1.02-.82v1.69Z"/>
    </g>
  </g>
</svg>